<?xml version="1.0" encoding="UTF-8"?>
<svg id="Camada_1" data-name="Camada 1" xmlns="http://www.w3.org/2000/svg" viewBox="0 0 100 100">
  <path d="M41.22,13.19c-.91,0-1.67-.31-2.28-.92-.61-.61-.92-1.37-.92-2.28s.31-1.67.92-2.28c.61-.61,1.37-.92,2.28-.92h17.56c.91,0,1.67.31,2.28.92.61.61.92,1.37.92,2.28s-.31,1.67-.92,2.28c-.61.61-1.37.92-2.28.92h-17.56ZM50,60.38c.91,0,1.67-.31,2.28-.92.61-.61.92-1.37.92-2.28v-17.56c0-.91-.31-1.67-.92-2.28-.61-.61-1.37-.92-2.28-.92s-1.67.31-2.28.92c-.61.61-.92,1.37-.92,2.28v17.56c0,.91.31,1.67.92,2.28.61.61,1.37.92,2.28.92ZM50,93.21c-4.98,0-9.67-.95-14.07-2.86-4.41-1.9-8.26-4.5-11.55-7.8-3.29-3.29-5.89-7.14-7.8-11.55-1.9-4.41-2.86-9.1-2.86-14.07s.95-9.67,2.86-14.07c1.9-4.41,4.5-8.26,7.8-11.55,3.29-3.29,7.14-5.89,11.55-7.8,4.41-1.9,9.1-2.86,14.07-2.86,4.27,0,8.39.73,12.35,2.18,3.96,1.45,7.63,3.53,11.03,6.23l3.07-3.07c.59-.59,1.33-.89,2.23-.91s1.65.29,2.27.91c.62.62.93,1.37.93,2.25s-.31,1.63-.93,2.25l-3.07,3.07c2.7,3.39,4.78,7.07,6.23,11.03,1.45,3.96,2.18,8.07,2.18,12.35,0,4.98-.95,9.67-2.86,14.07-1.9,4.41-4.5,8.26-7.8,11.55-3.29,3.29-7.14,5.89-11.55,7.8-4.41,1.9-9.1,2.86-14.07,2.86ZM50,86.81c8.25,0,15.29-2.92,21.13-8.75,5.83-5.83,8.75-12.87,8.75-21.13s-2.92-15.29-8.75-21.13c-5.83-5.83-12.87-8.75-21.13-8.75s-15.29,2.92-21.13,8.75c-5.83,5.83-8.75,12.87-8.75,21.13s2.92,15.29,8.75,21.13c5.83,5.83,12.87,8.75,21.13,8.75Z"/>
</svg>