<?xml version="1.0" encoding="UTF-8"?>
<svg id="Camada_1" data-name="Camada 1" xmlns="http://www.w3.org/2000/svg" viewBox="0 0 100 100">
  <path d="M8.44,91.32c-1.16,0-2.28-.5-3.05-1.4-1.01-1.17-1.27-2.81-.66-4.23l6.66-15.55c-4.58-6.39-6.98-13.72-6.98-21.34C4.4,26.68,24.86,8.68,50,8.68s45.6,18,45.6,40.12-20.46,40.12-45.6,40.12c-6.53,0-12.82-1.19-18.72-3.53l-21.8,5.79c-.34.09-.69.14-1.04.14ZM50,16.76c-20.69,0-37.52,14.37-37.52,32.04,0,6.54,2.31,12.84,6.68,18.22.95,1.16,1.17,2.76.58,4.14l-4.32,10.09,15.11-4.01c.87-.23,1.8-.16,2.63.19,5.26,2.27,10.93,3.42,16.84,3.42,20.69,0,37.52-14.37,37.52-32.04s-16.83-32.04-37.52-32.04Z"/>
  <rect x="26.54" y="43.83" width="9.63" height="9.63"/>
  <rect x="45.18" y="43.83" width="9.63" height="9.63"/>
  <rect x="64.13" y="43.83" width="9.63" height="9.63"/>
</svg>