<?xml version="1.0" encoding="UTF-8"?>
<svg id="Camada_1" data-name="Camada 1" xmlns="http://www.w3.org/2000/svg" viewBox="0 0 100 100">
  <path d="M75.55,54.93l1.49,12.05c.34,2.64-.57,5.28-2.47,7.18l-20.38,20.38-8.09-24.34-16.24-16.24-24.34-8.15,20.38-20.38c1.89-1.89,4.53-2.81,7.18-2.47l12.05,1.49C72.51-2.93,94.78,5.22,94.78,5.22c0,0,8.15,22.27-19.23,49.71ZM51.15,30.59c-5.85,5.85-10.5,14.01-13.2,19.23l12.17,12.17c5.22-2.64,13.43-7.29,19.29-13.2,16.07-16.02,18.14-29.39,17.91-36.11-6.72-.23-20.09,1.84-36.16,17.91ZM72.97,35.64c0-4.71-3.9-8.61-8.61-8.61s-8.61,3.9-8.61,8.61,3.85,8.61,8.61,8.61,8.61-3.85,8.61-8.61ZM38.47,32.31l-6.49-.8-10.56,10.5,9.3,3.1c1.89-3.62,4.53-8.27,7.75-12.8ZM54.89,69.28l3.1,9.3,10.5-10.5-.8-6.54c-4.53,3.21-9.18,5.85-12.8,7.75ZM22.74,64.34c-3.56,0-6.77,1.44-9.13,3.79-7,7-9.53,27.78-9.53,27.78,0,0,20.78-2.53,27.78-9.53,2.35-2.35,3.79-5.57,3.79-9.13,0-7.12-5.8-12.92-12.92-12.92ZM25.78,80.3c-2.53,2.53-10.73,4.65-10.73,4.65,0,0,2.12-8.21,4.65-10.73,1.66-1.66,4.42-1.66,6.08,0s1.66,4.42,0,6.08Z"/>
</svg>