<?xml version="1.0" encoding="UTF-8"?>
<svg id="Camada_1" data-name="Camada 1" xmlns="http://www.w3.org/2000/svg" viewBox="0 0 100 100">
  <path d="M79.52,13.26c-19.68-2.89-40.21-2.89-59.87,0-8.12,1.19-14.02,8.18-14.02,16.62v25.19c0,8.43,5.9,15.42,14.02,16.62,3.68.54,7.41.98,11.1,1.32v16.55c0,1.27.76,2.42,1.94,2.9.39.16.8.24,1.2.24.82,0,1.62-.32,2.22-.92l17.51-17.51c.29-.29.68-.46,1.11-.47,8.29-.21,16.63-.92,24.79-2.12,8.12-1.19,14.01-8.18,14.01-16.62v-25.19c0-8.43-5.89-15.42-14.01-16.62ZM87.26,55.07c0,5.29-3.64,9.67-8.65,10.41-7.91,1.16-16,1.85-24.03,2.05-2.05.05-3.97.87-5.4,2.31l-12.15,12.15v-11.86c0-1.64-1.26-3-2.9-3.13-4.49-.34-9.05-.86-13.56-1.52-5.01-.74-8.65-5.11-8.65-10.41v-25.19c0-5.29,3.64-9.67,8.65-10.41,9.53-1.4,19.3-2.12,29.02-2.12s19.48.71,29.02,2.12c5.01.74,8.65,5.11,8.65,10.41v25.19Z"/>
  <path d="M54.05,46.92h-26.19c-.93,0-1.71.3-2.33.9-.63.6-.94,1.35-.94,2.24s.31,1.64.94,2.24c.63.6,1.4.9,2.33.9h26.19c.93,0,1.71-.3,2.33-.9.63-.6.94-1.35.94-2.24s-.31-1.64-.94-2.24c-.63-.6-1.4-.9-2.33-.9Z"/>
  <path d="M71.51,31.81H27.86c-.93,0-1.71.3-2.33.9-.63.6-.94,1.35-.94,2.24s.31,1.64.94,2.24c.63.6,1.4.9,2.33.9h43.66c.93,0,1.71-.3,2.33-.9.63-.6.94-1.35.94-2.24s-.31-1.64-.94-2.24c-.63-.6-1.4-.9-2.33-.9Z"/>
</svg>