<?xml version="1.0" encoding="UTF-8"?>
<svg id="Camada_1" data-name="Camada 1" xmlns="http://www.w3.org/2000/svg" viewBox="0 0 100 100">
  <path d="M87.45,39.25v-3.42c0-5.38-2.83-10.03-6.9-12.08v-3.94c0-5.94-4.25-10.8-9.47-10.8H28.31c-5.23,0-9.47,4.85-9.47,10.8v3.65c-4.39,1.87-7.52,6.71-7.52,12.36v4.15c-3.5,2.3-5.82,6.29-5.82,10.82v27.2c0,7.17,5.81,12.98,12.98,12.98h63.05c7.17,0,12.98-5.81,12.98-12.98v-27.2c0-5.03-2.86-9.39-7.05-11.55ZM28.31,15.63h42.76c1.95,0,3.56,1.87,3.56,4.19v2.8H24.76v-2.8c0-2.32,1.59-4.19,3.56-4.19ZM18.33,35.83c0-.88.19-1.71.51-2.44.75-1.73,2.29-2.91,4.06-2.91h52.98c2.52,0,4.57,2.4,4.57,5.35v1.99H18.33v-1.99ZM87.76,78c0,3.45-2.79,6.24-6.24,6.24H18.48c-3.44,0-6.24-2.79-6.24-6.24v-27.2c0-3.38,2.72-6.16,6.09-6.24h63.2c2.78,0,5.12,1.81,5.93,4.3.2.61.31,1.27.31,1.94v27.2Z"/>
</svg>