<?xml version="1.0" encoding="UTF-8"?>
<svg id="Camada_1" data-name="Camada 1" xmlns="http://www.w3.org/2000/svg" viewBox="0 0 100 100">
  <path d="M50,46.71c-11.93,0-21.64-9.71-21.64-21.64S38.07,3.44,50,3.44s21.64,9.71,21.64,21.64-9.71,21.64-21.64,21.64ZM50,11.44c-7.52,0-13.64,6.12-13.64,13.64s6.12,13.64,13.64,13.64,13.64-6.12,13.64-13.64-6.12-13.64-13.64-13.64Z"/>
  <path d="M90.8,95.21H9.28l-.1-3.9c-.02-.7-.31-17.18,11.12-28.92,7.26-7.45,17.46-11.23,30.31-11.23,19.63,0,29.51,10.97,34.33,20.17,5.08,9.68,5.62,19.28,5.64,19.68l.21,4.2ZM17.45,87.21h64.59c-1.62-8.77-7.87-28.05-31.43-28.05-10.58,0-18.83,2.95-24.53,8.76-6.1,6.23-8.03,14.49-8.63,19.29Z"/>
</svg>