<?xml version="1.0" encoding="UTF-8"?>
<svg id="Camada_1" data-name="Camada 1" xmlns="http://www.w3.org/2000/svg" viewBox="0 0 100 100">
  <path d="M91.28,9.68H8.72c-2.09,0-3.78,1.69-3.78,3.78s1.69,3.78,3.78,3.78h3.57v51.68c0,2.09,1.69,3.78,3.78,3.78h25.82l-12.47,10.99c-1.57,1.38-1.72,3.77-.34,5.34,1.38,1.57,3.77,1.72,5.34.34l14.92-13.16,14.92,13.16c.72.63,1.61.95,2.5.95,1.05,0,2.09-.43,2.84-1.28,1.38-1.57,1.23-3.96-.34-5.34l-12.47-10.99h27.32c2.09,0,3.78-1.69,3.78-3.78V17.24h3.34c2.09,0,3.78-1.69,3.78-3.78s-1.69-3.78-3.78-3.78ZM80.37,65.14H19.87V17.24h60.5v47.9Z"/>
  <path d="M32.64,48.92l9.7-6.71,10.91,7.04c.63.41,1.34.6,2.05.6.94,0,1.87-.35,2.59-1.03l13.82-12.99c1.52-1.43,1.6-3.83.17-5.35s-3.83-1.6-5.35-.17l-11.66,10.96-10.55-6.8c-1.29-.83-2.95-.8-4.2.07l-11.78,8.15c-1.72,1.19-2.15,3.55-.96,5.27s3.55,2.15,5.27.96Z"/>
</svg>